# xmcd
# Track frame offsets:
# 150
# 19430
# 36490
# 63462
# 87761
# 102068
# 114160
# 132682
# 147728
#
# Disc length: 2131 seconds
# Revision: 0
# Processed by: cddbd v1.4PL0 Copyright (c) Steve Scherf et al.
# Submitted via: VisiTrax 2.9.5.180 - For more info visit www.synapsa.com
#
DISCID=83085109
DTITLE=Good as bad can be - Roland and Bluesworkshop
DYEAR=1989
DGENRE=Blues
TTITLE0=Good as bad can be
TTITLE1=7th son
TTITLE2=Low down Santa Fé
TTITLE3=Louisiana woman
TTITLE4=I'll give all i've got
TTITLE5=Wild Emma's dance
TTITLE6=Ain't gonna be your slave
TTITLE7=Honey what's wrong
TTITLE8=Boats and trains and plains
EXTD=
EXTT0=
EXTT1=
EXTT2=
EXTT3=
EXTT4=
EXTT5=
EXTT6=
EXTT7=
EXTT8=
PLAYORDER=
